#Comment line ignore any data following # character 
#Hierarchical Translation and Rotation (.htr) file 
[Header]	
#Header keywords are followed by a single value 
FileType HTR		#Single word string
DataType HTRS		#Translation followed by rotation and scale data
FileVersion 1		#integer
NumSegments 25		#integer
NumFrames 4		#integer
DataFrameRate 30		#integer, data frame rate in this file
EulerRotationOrder ZYX
CalibrationUnits mm
RotationUnits Degrees
GlobalAxisofGravity Y
BoneLengthAxis Y
ScaleFactor 1.00
[SegmentNames&Hierarchy]
#CHILD	PARENT
BN_Tick_Root GLOBAL
BN_Torso BN_Tick_Root
BN_L_Leg_Front01 BN_Torso
BN_L_Leg_Rear01 BN_Torso
BN_MetalTop BN_Torso
BN_Neck BN_Torso
BN_R_Leg_Front01 BN_Torso
BN_R_Leg_Rear01 BN_Torso
BN_Sack BN_Torso
BN_L_Leg_Front02 BN_L_Leg_Front01
BN_L_Leg_Front03 BN_L_Leg_Front02
BN_L_Leg_Rear02 BN_L_Leg_Rear01
BN_L_Leg_Rear03 BN_L_Leg_Rear02
BN_Head BN_Neck
BN_Needle BN_Head
BN_R_Leg_Front02 BN_R_Leg_Front01
BN_R_Leg_Front03 BN_R_Leg_Front02
BN_R_Leg_Rear02 BN_R_Leg_Rear01
BN_R_Leg_Rear03 BN_R_Leg_Rear02
BN_SackDef01 BN_Sack
BN_SackDef02 BN_Sack
BN_SackDef03 BN_Sack
BN_SackDef04 BN_Sack
BN_SackDef05 BN_Sack
BN_SackDef06 BN_Sack
[BasePosition]
#SegmentName Tx, Ty, Tz, Rx, Ry, Rz, BoneLength
BN_Tick_Root 0.000000 0.000000 0.000000 -90.000000 0.000000 0.000000 10.000000 
BN_Torso 0.000000 0.000000 0.000000 0.000000 0.000000 0.000000 10.000000 
BN_L_Leg_Front01 0.000000 0.000000 0.000000 0.000000 0.000000 0.000000 10.000000 
BN_L_Leg_Rear01 0.000000 0.000000 0.000000 0.000000 0.000000 0.000000 10.000000 
BN_MetalTop 0.000000 0.000000 0.000000 0.000000 0.000000 0.000000 10.000000 
BN_Neck 0.000000 0.000000 0.000000 0.000000 0.000000 0.000000 10.000000 
BN_R_Leg_Front01 0.000000 0.000000 0.000000 0.000000 0.000000 0.000000 10.000000 
BN_R_Leg_Rear01 0.000000 0.000000 0.000000 0.000000 0.000000 0.000000 10.000000 
BN_Sack 0.000000 0.000000 0.000000 0.000000 0.000000 0.000000 10.000000 
BN_L_Leg_Front02 0.000000 0.000000 0.000000 0.000000 0.000000 0.000000 10.000000 
BN_L_Leg_Front03 0.000000 0.000000 0.000000 0.000000 0.000000 0.000000 10.000000 
BN_L_Leg_Rear02 0.000000 0.000000 0.000000 0.000000 0.000000 0.000000 10.000000 
BN_L_Leg_Rear03 0.000000 0.000000 0.000000 0.000000 0.000000 0.000000 10.000000 
BN_Head 0.000000 0.000000 0.000000 0.000000 0.000000 0.000000 10.000000 
BN_Needle 0.000000 0.000000 0.000000 0.000000 0.000000 0.000000 10.000000 
BN_R_Leg_Front02 0.000000 0.000000 0.000000 0.000000 0.000000 0.000000 10.000000 
BN_R_Leg_Front03 0.000000 0.000000 0.000000 0.000000 0.000000 0.000000 10.000000 
BN_R_Leg_Rear02 0.000000 0.000000 0.000000 0.000000 0.000000 0.000000 10.000000 
BN_R_Leg_Rear03 0.000000 0.000000 0.000000 0.000000 0.000000 0.000000 10.000000 
BN_SackDef01 0.000000 0.000000 0.000000 0.000000 0.000000 0.000000 10.000000 
BN_SackDef02 0.000000 0.000000 0.000000 0.000000 0.000000 0.000000 10.000000 
BN_SackDef03 0.000000 0.000000 0.000000 0.000000 0.000000 0.000000 10.000000 
BN_SackDef04 0.000000 0.000000 0.000000 0.000000 0.000000 0.000000 10.000000 
BN_SackDef05 0.000000 0.000000 0.000000 0.000000 0.000000 0.000000 10.000000 
BN_SackDef06 0.000000 0.000000 0.000000 0.000000 0.000000 0.000000 10.000000 
#Beginning of Data. Separated by tabs
#Fr	Tx	Ty	Tz	Rx	Ry	Rz	SF
[BN_Tick_Root]
845 0.000000 0.000000 0.000000 0.000000 0.000000 -0.000020 0.000000
846 0.000000 0.000000 0.000000 0.000000 0.000000 -0.000020 0.000000
847 0.000000 0.000000 0.000000 0.000000 0.000000 -0.000020 0.000000
848 0.000000 0.000000 0.000000 0.000000 0.000000 -0.000020 0.000000
[BN_Torso]
845 283.330963 -341.274170 -1726.609009 -14.806660 -3.763130 -71.067574 1782.672974
846 255.035721 -325.050140 -1729.498901 -14.806839 -3.763463 -70.743515 1778.164063
847 227.395004 -309.652527 -1732.381226 -14.807020 -3.763794 -70.419464 1774.468384
848 199.754272 -294.254944 -1735.263672 -14.807205 -3.764125 -70.095428 1771.334961
[BN_L_Leg_Front01]
845 -68.477791 10.734189 -26.804373 -120.497765 63.067318 125.286324 74.316254
846 -68.477791 10.734189 -26.804373 -120.497765 63.067318 125.286324 74.316254
847 -68.477791 10.734189 -26.804373 -120.497765 63.067318 125.286324 74.316254
848 -68.477791 10.734189 -26.804373 -120.497765 63.067303 125.286308 74.316254
[BN_L_Leg_Rear01]
845 -72.133743 -73.994843 -18.268616 146.400146 53.651188 -122.533401 104.939293
846 -72.133743 -73.994843 -18.268616 146.400146 53.651188 -122.533401 104.939293
847 -72.133743 -73.994843 -18.268616 146.400131 53.651173 -122.533394 104.939293
848 -72.133743 -73.994843 -18.268616 146.400146 53.651188 -122.533401 104.939293
[BN_MetalTop]
845 0.000008 13.737477 26.403606 92.251366 -17.585709 -97.417938 29.763546
846 0.000008 13.737477 26.403606 92.251358 -17.585703 -97.417923 29.763546
847 0.000008 13.737477 26.403606 92.251366 -17.585709 -97.417938 29.763546
848 0.000008 13.737477 26.403606 92.251366 -17.585709 -97.417938 29.763546
[BN_Neck]
845 0.000014 95.233284 10.002091 -89.999672 -65.297531 89.999657 95.757088
846 0.000014 95.233284 10.002091 -89.999672 -65.297531 89.999657 95.757088
847 0.000014 95.233284 10.002091 -89.999672 -65.297531 89.999657 95.757088
848 0.000014 95.233284 10.002091 -89.999672 -65.297531 89.999657 95.757088
[BN_R_Leg_Front01]
845 68.477768 10.734107 -26.804314 120.514114 63.065178 54.726814 74.316193
846 68.477768 10.734107 -26.804314 120.514114 63.065178 54.726814 74.316193
847 68.477768 10.734107 -26.804314 120.514114 63.065178 54.726814 74.316193
848 68.477768 10.734107 -26.804314 120.514114 63.065178 54.726814 74.316193
[BN_R_Leg_Rear01]
845 72.133751 -73.994873 -18.268644 -137.236404 61.112167 -46.624966 104.939331
846 72.133751 -73.994873 -18.268644 -132.670883 63.506504 -41.471699 104.939331
847 72.133751 -73.994873 -18.268644 -126.739349 65.838921 -34.911789 104.939331
848 72.133751 -73.994873 -18.268644 -119.590614 67.839401 -27.139153 104.939331
[BN_Sack]
845 -0.000000 -78.024918 33.657791 91.379875 -11.014520 -97.199577 84.974907
846 -0.000000 -78.024918 33.657791 91.379875 -11.014523 -97.199577 84.974907
847 -0.000000 -78.024918 33.657791 91.379875 -11.014524 -97.199577 84.974907
848 -0.000000 -78.024918 33.657791 91.379883 -11.014522 -97.199577 84.974907
[BN_L_Leg_Front02]
845 142.805023 -0.000015 -0.000104 -32.650272 34.739552 -165.697113 142.805023
846 142.805023 -0.000015 -0.000104 -32.715504 34.950222 -165.357605 142.805023
847 142.805023 -0.000015 -0.000104 -32.779354 35.161182 -165.017517 142.805023
848 142.805023 -0.000015 -0.000104 -32.841084 35.372696 -164.676361 142.805023
[BN_L_Leg_Front03]
845 124.143021 -0.000045 0.000007 0.351348 -0.361718 126.267609 124.143021
846 124.143021 -0.000045 0.000007 0.351260 -0.369170 124.479683 124.143021
847 124.143021 -0.000045 0.000007 0.351405 -0.376624 122.691002 124.143021
848 124.143021 -0.000045 0.000007 0.351782 -0.384070 120.902328 124.143021
[BN_L_Leg_Rear02]
845 139.939041 0.000075 -0.000022 -23.722431 36.053146 88.206635 139.939041
846 139.939041 0.000075 -0.000022 -23.406485 34.583790 90.733459 139.939041
847 139.939041 0.000075 -0.000022 -23.173468 33.103813 93.208641 139.939041
848 139.939041 0.000075 -0.000022 -23.020252 31.618607 95.634209 139.939041
[BN_L_Leg_Rear03]
845 142.839615 0.000179 -0.000060 0.000678 -0.002247 -123.559448 142.839615
846 142.839615 0.000179 -0.000060 0.000702 -0.002240 -124.806862 142.839615
847 142.839615 0.000179 -0.000060 0.000726 -0.002232 -126.053024 142.839615
848 142.839615 0.000179 -0.000060 0.000747 -0.002225 -127.121857 142.839615
[BN_Head]
845 57.062447 -0.000030 0.000000 11.270450 -2.715731 1.244907 57.062447
846 57.062447 -0.000030 0.000000 11.270451 -2.715731 1.244907 57.062447
847 57.062447 -0.000030 0.000000 11.270450 -2.715731 1.244907 57.062447
848 57.062447 -0.000030 0.000000 11.270450 -2.715731 1.244907 57.062447
[BN_Needle]
845 33.915367 69.677582 -0.000120 0.000003 0.000030 87.896805 77.493340
846 33.915367 69.677582 -0.000119 0.000003 0.000030 87.896805 77.493340
847 33.915363 69.677582 -0.000118 0.000003 0.000030 87.896805 77.493340
848 33.915363 69.677582 -0.000117 0.000003 0.000030 87.896805 77.493340
[BN_R_Leg_Front02]
845 142.804947 -0.000060 0.000060 24.564777 40.396473 142.562973 142.804947
846 142.804947 -0.000060 0.000060 24.835285 40.641224 142.518875 142.804947
847 142.804947 -0.000060 0.000060 25.105377 40.886269 142.475021 142.804947
848 142.804947 -0.000060 0.000060 25.199255 41.152328 142.254868 142.804947
[BN_R_Leg_Front03]
845 124.143005 -0.000060 -0.000156 -0.352543 -0.424701 -108.470955 124.143005
846 124.143005 -0.000060 -0.000156 -0.353161 -0.428469 -106.779549 124.143005
847 124.143005 -0.000060 -0.000156 -0.353889 -0.432218 -105.087517 124.143005
848 124.143005 -0.000060 -0.000156 -0.354728 -0.435945 -103.395470 124.143005
[BN_R_Leg_Rear02]
845 139.939011 -0.000149 0.000015 52.726677 32.536049 -36.872387 139.939011
846 139.939011 -0.000149 0.000015 48.767696 39.169529 -39.029373 139.939011
847 139.939011 -0.000149 0.000015 43.363937 46.649368 -42.247978 139.939011
848 139.939011 -0.000149 0.000015 35.285561 54.759392 -47.792419 139.939011
[BN_R_Leg_Rear03]
845 142.839417 0.000075 0.000119 0.002081 -0.001086 145.101135 142.839417
846 142.839417 0.000075 0.000119 0.002055 -0.001137 147.896652 142.839417
847 142.839417 0.000075 0.000119 0.002027 -0.001187 150.693649 142.839417
848 142.839417 0.000075 0.000119 0.001996 -0.001235 153.487762 142.839417
[BN_SackDef01]
845 249.782379 -3.760681 42.949402 -128.408218 -44.374973 -11.740845 253.475906
846 249.782379 -3.760681 42.949402 -128.408218 -44.374973 -11.740845 253.475906
847 249.782379 -3.760681 42.949402 -128.408218 -44.374973 -11.740845 253.475906
848 249.782379 -3.760681 42.949402 -128.408218 -44.374973 -11.740845 253.475906
[BN_SackDef02]
845 138.789948 -62.131641 45.674404 32.077126 -27.375721 -88.781525 158.773880
846 138.789948 -62.131641 45.674404 32.077126 -27.375721 -88.781525 158.773880
847 138.789948 -62.131641 45.674404 32.077126 -27.375721 -88.781525 158.773880
848 138.789948 -62.131641 45.674404 32.077126 -27.375721 -88.781525 158.773880
[BN_SackDef03]
845 249.782257 -3.760542 -42.949680 18.144459 44.375008 -11.740894 253.475830
846 249.782257 -3.760542 -42.949680 18.144459 44.375008 -11.740894 253.475830
847 249.782257 -3.760543 -42.949680 18.144459 44.375008 -11.740894 253.475830
848 249.782257 -3.760543 -42.949677 18.144459 44.375008 -11.740894 253.475830
[BN_SackDef04]
845 138.789825 -62.131500 -45.674500 146.059982 27.375723 -88.781555 158.773743
846 138.789825 -62.131500 -45.674500 146.059982 27.375723 -88.781555 158.773743
847 138.789825 -62.131500 -45.674500 146.059982 27.375723 -88.781555 158.773743
848 138.789825 -62.131500 -45.674500 146.059982 27.375723 -88.781555 158.773743
[BN_SackDef05]
845 118.790131 46.167221 -63.831299 0.155741 51.314110 90.605110 142.537506
846 118.790131 46.167221 -63.831299 0.155741 51.314110 90.605110 142.537506
847 118.790131 46.167221 -63.831299 0.155741 51.314110 90.605110 142.537506
848 118.790131 46.167221 -63.831299 0.155741 51.314110 90.605110 142.537506
[BN_SackDef06]
845 118.790146 46.167294 63.831142 152.058487 -51.314072 90.605019 142.537476
846 118.790146 46.167294 63.831142 152.058487 -51.314072 90.605019 142.537476
847 118.790146 46.167294 63.831142 152.058487 -51.314072 90.605019 142.537476
848 118.790146 46.167294 63.831142 152.058487 -51.314072 90.605019 142.537476
